<?xml version="1.0" encoding="UTF-8" standalone="no"?>
<!-- Created with Inkscape (http://www.inkscape.org/) -->

<svg
   xmlns:osb="http://www.openswatchbook.org/uri/2009/osb"
   xmlns:dc="http://purl.org/dc/elements/1.1/"
   xmlns:cc="http://creativecommons.org/ns#"
   xmlns:rdf="http://www.w3.org/1999/02/22-rdf-syntax-ns#"
   xmlns:svg="http://www.w3.org/2000/svg"
   xmlns="http://www.w3.org/2000/svg"
   xmlns:sodipodi="http://sodipodi.sourceforge.net/DTD/sodipodi-0.dtd"
   xmlns:inkscape="http://www.inkscape.org/namespaces/inkscape"
   width="180"
   height="180"
   id="svg2"
   version="1.1"
   inkscape:version="0.48.4 r9939"
   sodipodi:docname="Neues Dokument 1">
  <defs
     id="defs4">
    <linearGradient
       id="linearGradient3802"
       osb:paint="solid">
      <stop
         style="stop-color:#000000;stop-opacity:1;"
         offset="0"
         id="stop3804" />
    </linearGradient>
  </defs>
  <sodipodi:namedview
     id="base"
     pagecolor="#ffffff"
     bordercolor="#666666"
     borderopacity="1.0"
     inkscape:pageopacity="0.0"
     inkscape:pageshadow="2"
     inkscape:zoom="1.4"
     inkscape:cx="191.10668"
     inkscape:cy="39.753357"
     inkscape:document-units="px"
     inkscape:current-layer="layer1"
     showgrid="false"
     fit-margin-top="0"
     fit-margin-left="0"
     fit-margin-right="0"
     fit-margin-bottom="0"
     inkscape:window-width="1600"
     inkscape:window-height="847"
     inkscape:window-x="-8"
     inkscape:window-y="-8"
     inkscape:window-maximized="1" />
  <metadata
     id="metadata7">
    <rdf:RDF>
      <cc:Work
         rdf:about="">
        <dc:format>image/svg+xml</dc:format>
        <dc:type
           rdf:resource="http://purl.org/dc/dcmitype/StillImage" />
        <dc:title></dc:title>
      </cc:Work>
    </rdf:RDF>
  </metadata>
  <g
     inkscape:label="Ebene 1"
     inkscape:groupmode="layer"
     id="layer1"
     transform="translate(-189.97463,-551.13371)">
    <g
       id="g3816"
       transform="translate(5.1801626,-28.128152)">
      <path
         inkscape:connector-curvature="0"
         style="fill:#000000;fill-opacity:0.50196078;stroke:none"
         d="m 315.30419,641.21875 c -4.46313,0 -8.0625,3.63062 -8.0625,8.09375 0,4.46313 3.59937,8.09375 8.0625,8.09375 4.46313,0 8.09375,-3.63062 8.09375,-8.09375 0,-4.46313 -3.63062,-8.09375 -8.09375,-8.09375 z m 2.34375,1.5 c 1.7752,0 3.21875,1.44355 3.21875,3.21875 0,1.7752 -1.44355,3.21875 -3.21875,3.21875 -1.7752,0 -3.21875,-1.44355 -3.21875,-3.21875 0,-1.7752 1.44355,-3.21875 3.21875,-3.21875 z"
         id="path3790" />
      <path
         transform="matrix(1,0,0,1.1395349,-9.0913729,-99.716445)"
         d="m 368.70568,674.81769 c 0,29.98669 -37.87683,54.2957 -84.60027,54.2957 -46.72344,0 -84.60028,-24.30901 -84.60028,-54.2957 0,-29.98669 37.87684,-54.2957 84.60028,-54.2957 46.72344,0 84.60027,24.30901 84.60027,54.2957 z"
         sodipodi:ry="54.2957"
         sodipodi:rx="84.600273"
         sodipodi:cy="674.81769"
         sodipodi:cx="284.10541"
         id="path3785"
         style="fill:#000000;fill-opacity:0.50196078;stroke:none"
         sodipodi:type="arc" />
      <path
         inkscape:connector-curvature="0"
         id="path3009"
         d="m 215.15625,641.21875 c -4.46313,0 -8.0625,3.63062 -8.0625,8.09375 0,4.46313 3.59937,8.09375 8.0625,8.09375 4.46313,0 8.09375,-3.63062 8.09375,-8.09375 0,-4.46313 -3.63062,-8.09375 -8.09375,-8.09375 z m 2.34375,1.5 c 1.7752,0 3.21875,1.44355 3.21875,3.21875 0,1.7752 -1.44355,3.21875 -3.21875,3.21875 -1.7752,0 -3.21875,-1.44355 -3.21875,-3.21875 0,-1.7752 1.44355,-3.21875 3.21875,-3.21875 z"
         style="fill:#000000;fill-opacity:0.50196078;stroke:none" />
      <path
         sodipodi:nodetypes="cczc"
         inkscape:connector-curvature="0"
         id="path3015"
         d="m 234.86047,652.84685 61.11423,0 c 0,0 16.02244,27.7792 -30.80966,27.7792 -46.8321,0 -30.30457,-27.7792 -30.30457,-27.7792 z"
         style="fill:#000000;fill-opacity:0.50196078;stroke:none" />
      <path
         transform="translate(-4.6682385,0.38252426)"
         d="m 347.85715,659.68359 c 0,2.66281 -4.31725,4.82143 -9.64286,4.82143 -5.3256,0 -9.64285,-2.15862 -9.64285,-4.82143 0,-2.6628 4.31725,-4.82143 9.64285,-4.82143 5.32561,0 9.64286,2.15863 9.64286,4.82143 z"
         sodipodi:ry="4.8214288"
         sodipodi:rx="9.6428576"
         sodipodi:cy="659.68359"
         sodipodi:cx="338.21429"
         id="path3794"
         style="fill:#000000;fill-opacity:0.50196078;stroke:none"
         sodipodi:type="arc" />
      <path
         sodipodi:type="arc"
         style="fill:#000000;fill-opacity:0.50196078;stroke:none"
         id="path3796"
         sodipodi:cx="338.21429"
         sodipodi:cy="659.68359"
         sodipodi:rx="9.6428576"
         sodipodi:ry="4.8214288"
         d="m 347.85715,659.68359 c 0,2.66281 -4.31725,4.82143 -9.64286,4.82143 -5.3256,0 -9.64285,-2.15862 -9.64285,-4.82143 0,-2.6628 4.31725,-4.82143 9.64285,-4.82143 5.32561,0 9.64286,2.15863 9.64286,4.82143 z"
         transform="translate(-138.59681,0.38252426)" />
      <path
         transform="matrix(1.4545455,0,0,1.4545455,-133.37663,-315.3919)"
         d="m 298.92858,691.11218 c 0,1.08485 -0.87944,1.96429 -1.96429,1.96429 -1.08484,0 -1.96428,-0.87944 -1.96428,-1.96429 0,-1.08484 0.87944,-1.96428 1.96428,-1.96428 1.08485,0 1.96429,0.87944 1.96429,1.96428 z"
         sodipodi:ry="1.9642857"
         sodipodi:rx="1.9642857"
         sodipodi:cy="691.11218"
         sodipodi:cx="296.96429"
         id="path3798"
         style="fill:#000000;fill-opacity:0.50196078;stroke:none"
         sodipodi:type="arc" />
    </g>
  </g>
</svg>
